<?xml version="1.0" encoding="UTF-8"?>
<svg version="1.1" xmlns="http://www.w3.org/2000/svg" width="50" height="50">
<path d="M0 0 C0.66 0 1.32 0 2 0 C2.24234375 0.80824219 2.4846875 1.61648437 2.734375 2.44921875 C5.87120229 12.62494241 5.87120229 12.62494241 13.8125 19.1875 C17.46391717 20.87962015 21.10015354 22.02503838 25 23 C25 23.66 25 24.32 25 25 C24.19175781 25.24234375 23.38351563 25.4846875 22.55078125 25.734375 C12.37505759 28.87120229 12.37505759 28.87120229 5.8125 36.8125 C4.12037985 40.46391717 2.97496162 44.10015354 2 48 C1.34 48 0.68 48 0 48 C-0.36351562 46.78763672 -0.36351562 46.78763672 -0.734375 45.55078125 C-3.87120229 35.37505759 -3.87120229 35.37505759 -11.8125 28.8125 C-15.46391717 27.12037985 -19.10015354 25.97496162 -23 25 C-23 24.34 -23 23.68 -23 23 C-22.19175781 22.75765625 -21.38351563 22.5153125 -20.55078125 22.265625 C-10.37505759 19.12879771 -10.37505759 19.12879771 -3.8125 11.1875 C-2.12037985 7.53608283 -0.97496162 3.89984646 0 0 Z " fill="#4079E0" transform="translate(24,1)"/>
<path d="M0 0 C0.66 0 1.32 0 2 0 C2.26554687 0.80824219 2.53109375 1.61648437 2.8046875 2.44921875 C3.15789063 3.51785156 3.51109375 4.58648437 3.875 5.6875 C4.22304688 6.74324219 4.57109375 7.79898437 4.9296875 8.88671875 C5.86978402 11.62123309 6.92608675 14.31521686 8 17 C3.38 21.62 -1.24 26.24 -6 31 C-8.475 30.01 -8.475 30.01 -11 29 C-13.09958072 28.27818681 -15.20393509 27.57013129 -17.3125 26.875 C-18.38113281 26.52179687 -19.44976562 26.16859375 -20.55078125 25.8046875 C-21.35902344 25.53914063 -22.16726562 25.27359375 -23 25 C-23 24.34 -23 23.68 -23 23 C-22.19175781 22.75765625 -21.38351563 22.5153125 -20.55078125 22.265625 C-10.37505759 19.12879771 -10.37505759 19.12879771 -3.8125 11.1875 C-2.12037985 7.53608283 -0.97496162 3.89984646 0 0 Z " fill="#7B6CE9" transform="translate(24,1)"/>
<path d="M0 0 C0.99 0.33 1.98 0.66 3 1 C3.87280273 2.84667969 3.87280273 2.84667969 4 5 C2.82836914 6.73925781 2.82836914 6.73925781 1.03515625 8.453125 C0.40029297 9.071875 -0.23457031 9.690625 -0.88867188 10.328125 C-1.56478516 10.96234375 -2.24089844 11.5965625 -2.9375 12.25 C-3.60974609 12.8996875 -4.28199219 13.549375 -4.97460938 14.21875 C-6.63912593 15.82424114 -8.31415428 17.41696904 -10 19 C-12.475 18.01 -12.475 18.01 -15 17 C-13.67879172 14.06769807 -12.25361803 12.01335101 -9.9609375 9.765625 C-9.38085938 9.19199219 -8.80078125 8.61835938 -8.203125 8.02734375 C-7.59984375 7.44082031 -6.9965625 6.85429687 -6.375 6.25 C-5.76398437 5.64800781 -5.15296875 5.04601562 -4.5234375 4.42578125 C-3.02011376 2.94594695 -1.51065144 1.47235324 0 0 Z " fill="#6172E5" transform="translate(28,13)"/>
</svg>
